PathFileType	4	(X/Y/Z)	C:\Users\WrightLab\Desktop\Jo\P1.2Trial4.trc
DataRate	CameraRate	NumFrames	NumMarkers	Units	OrigDataRate	OrigDataStartFrame	OrigNumFrames
100.00	100.00	       19	19	mm	100.00	329	       525
Frame#	Time	Headset_Front			Headset_Back			Headset_Left			Headset_Right			Left_Shoulder			Right_Shoulder			Sternum			C7			Left Elbow			Right Elbow			Left Wrist			Right Wrist			Left ASIS			Right ASIS			S2			Left Knee			Right Knee			Left Ankle			Right Ankle			
		X1	Y1	Z1	X2	Y2	Z2	X3	Y3	Z3	X4	Y4	Z4	X5	Y5	Z5	X6	Y6	Z6	X7	Y7	Z7	X8	Y8	Z8	X9	Y9	Z9	X10	Y10	Z10	X11	Y11	Z11	X12	Y12	Z12	X13	Y13	Z13	X14	Y14	Z14	X15	Y15	Z15	X16	Y16	Z16	X17	Y17	Z17	X18	Y18	Z18	X19	Y19	Z19	

329	3.280	24.83167	1413.81067	1211.11182	23.25589	1555.01892	941.39557	135.05585	1492.04553	1049.91711	-82.51740	1453.18115	1113.15967	249.66743	1295.62878	959.46460	-172.39546	1284.32410	1009.49506	54.25323	1222.39722	1102.34351	24.98160	1346.71997	876.20874	337.86429	1016.16681	915.48572	-248.02365	1034.80518	962.34088	424.67853	827.59106	1044.34509	-308.77975	789.47754	1045.67163	199.78267	919.42291	1075.01929	-82.29406	898.11981	1101.93335	31.46115	951.25995	795.95557	225.77856	472.82709	1036.56458	-51.18281	526.61084	1211.04736	231.33971	131.33057	928.75073	-16.79388	191.45103	1085.85437	
330	3.290	25.12639	1413.61584	1220.13074	25.01244	1554.84045	950.88635	136.20811	1491.75244	1061.28345	-81.63216	1452.80493	1121.25525	252.84439	1296.59363	970.96259	-170.76619	1283.83350	1016.39911	55.97863	1221.56934	1110.98193	28.84617	1346.77063	885.06732	343.36179	1018.27545	929.31696	-245.10509	1035.15588	965.42639	428.11392	830.24481	1061.99390	-309.02679	789.52069	1046.53931	200.58783	919.27454	1084.33374	-80.70351	898.18530	1108.76099	34.43636	951.74463	803.53589	226.50832	471.37051	1040.42773	-50.04307	528.35944	1218.89697	231.76746	130.89264	928.83276	-10.79956	187.91884	1112.01099	
331	3.300	25.38544	1412.87256	1228.97449	28.95955	1554.19885	960.11670	137.90543	1491.73877	1071.45251	-80.55247	1452.08289	1129.36292	255.54625	1296.82300	981.79004	-168.78619	1284.01904	1023.37500	57.47055	1221.12769	1120.22815	32.28531	1347.14612	894.03387	348.13007	1019.21808	942.22430	-242.74657	1035.38196	969.18634	431.02539	832.22888	1078.04492	-308.90787	789.16290	1047.49683	201.57634	918.70715	1092.56470	-79.12775	898.12341	1115.75171	37.15209	952.19427	813.02698	228.31564	470.10977	1044.44763	-49.05370	530.10791	1226.03601	231.78242	130.91013	928.83667	-5.53904	183.17531	1136.64734	
332	3.310	24.13232	1412.45837	1239.16162	29.58098	1555.00146	969.87555	138.74533	1491.44409	1082.31311	-79.41968	1450.90601	1137.26660	257.42719	1296.40222	994.12909	-166.08592	1282.95801	1030.12354	58.90657	1220.25525	1129.11145	35.73931	1346.84802	903.67407	353.00122	1020.04242	954.35895	-240.08517	1034.95764	972.74921	432.94083	832.84070	1093.83350	-308.72308	788.68658	1048.30994	203.19629	918.06165	1100.55579	-76.60178	896.96979	1122.81494	38.99508	952.34460	819.34430	229.77080	468.83698	1049.52563	-47.42442	530.55316	1232.03503	231.08859	130.96700	929.68707	-0.99018	180.90288	1164.04004	
333	3.320	23.46695	1411.76855	1248.68555	32.84309	1553.55579	979.17377	139.84183	1491.03992	1092.86182	-79.08315	1449.82373	1145.29736	259.77454	1296.38489	1006.07642	-163.44780	1281.21191	1037.45142	60.18077	1218.93115	1137.89966	39.03649	1346.18384	912.34363	357.41995	1020.14056	967.40649	-237.86139	1034.39563	977.32721	436.12521	834.83185	1111.14771	-309.11929	787.64166	1048.47009	204.13994	917.46918	1108.59424	-74.59740	895.81079	1129.93274	40.56491	953.08679	826.65057	229.08070	466.13913	1052.45190	-45.39305	529.66614	1238.52734	230.73515	130.65498	930.48041	2.80744	177.34946	1190.21533	
334	3.330	22.60809	1410.61682	1257.93237	35.70465	1552.45923	988.45551	141.02885	1490.21509	1103.22876	-78.92466	1448.55859	1153.22168	262.26193	1295.51990	1017.15698	-161.39308	1279.86829	1044.34766	61.15498	1217.63672	1147.10535	42.16796	1345.36365	921.61285	362.36981	1020.36237	980.61523	-235.40787	1033.36584	981.81567	437.71143	834.93213	1126.43494	-308.86533	785.88239	1050.53113	205.28835	915.82672	1116.33960	-73.33762	894.47003	1137.50720	42.86309	952.43115	834.88556	230.82726	465.23767	1057.18591	-43.70745	528.67487	1243.62939	230.76834	130.23582	931.43866	6.48575	175.13348	1217.45215	
335	3.340	22.31911	1409.19299	1266.86145	36.93520	1551.86975	998.16791	142.39296	1489.49146	1113.91772	-78.40392	1447.27185	1161.62866	264.24918	1295.28223	1029.01770	-159.87263	1278.34534	1052.01575	62.29008	1216.10315	1156.73450	45.07684	1344.74805	931.19208	366.94016	1019.62811	993.95258	-233.07538	1032.50830	986.58105	439.72388	835.33362	1141.38647	-307.80630	784.55426	1052.68567	206.07071	915.16846	1124.91516	-72.25060	893.24799	1145.50769	43.35317	952.81549	841.42639	231.47003	463.50946	1061.92212	-41.80049	526.79541	1249.69202	230.85609	129.32196	931.82245	9.93466	173.70728	1244.57483	
336	3.350	21.84007	1407.84351	1276.40186	39.19160	1550.69604	1007.68732	143.40988	1488.47888	1124.62732	-77.75976	1445.55835	1169.78748	266.29395	1293.80969	1040.17432	-158.41257	1276.73999	1059.54395	63.72206	1213.93689	1165.22791	47.75414	1343.78882	940.48041	372.07953	1020.17084	1006.41852	-230.40956	1030.97107	991.77740	441.11441	834.51691	1156.54431	-306.78314	782.89673	1054.13843	208.14738	913.36108	1131.82764	-70.25521	890.64581	1153.89417	44.93452	951.75183	850.82520	233.04489	462.13702	1067.28259	-39.60981	523.47778	1255.25281	230.49808	128.79825	932.53137	11.85324	172.99547	1271.13513	
337	3.360	21.10858	1406.37427	1285.24841	40.42684	1549.74792	1017.25159	144.71559	1487.37842	1135.21167	-77.25855	1444.35352	1178.04639	267.84537	1292.66284	1050.92102	-156.04527	1274.74634	1067.24207	64.33758	1212.43335	1174.78052	49.92656	1343.05310	950.02582	375.95526	1019.77545	1020.28906	-228.34676	1029.71521	997.66974	442.00879	833.85919	1171.25427	-305.51361	781.08246	1057.03943	209.68776	911.59998	1139.57556	-68.69054	888.32294	1162.68811	46.25716	952.29712	855.78131	234.01910	460.32022	1072.34985	-37.52618	519.53491	1260.68005	229.87526	128.34653	933.91095	13.89619	173.66310	1295.89099	
338	3.370	20.17887	1404.84949	1294.60205	42.14871	1547.73328	1026.67188	144.80865	1486.25989	1145.72034	-77.47336	1442.76245	1186.63989	269.67511	1291.62561	1063.07104	-154.81665	1273.21619	1075.30042	65.23664	1210.30261	1184.73132	52.45849	1342.21069	959.56531	379.07605	1018.87231	1031.96423	-226.28601	1027.84387	1003.55096	442.57098	833.22198	1186.24536	-304.83182	778.66211	1060.13721	211.00728	910.01184	1148.40649	-67.33382	886.14093	1171.72864	47.27570	951.89716	864.74701	235.41971	459.36218	1079.08130	-36.53786	515.06500	1266.50183	229.85649	128.28709	935.19769	14.41762	176.32034	1319.68860	
339	3.380	19.39660	1403.13391	1304.06946	42.93740	1546.58594	1036.17432	144.79469	1484.41394	1155.61963	-77.35983	1440.97620	1194.88000	270.97388	1290.35852	1074.46655	-153.76144	1271.51624	1083.26367	66.03606	1208.42700	1193.61877	54.37497	1340.77637	969.09784	381.97348	1017.75842	1046.56128	-224.09886	1026.34143	1009.58765	443.15512	832.42090	1200.39539	-303.92783	777.57629	1063.46130	212.25201	907.91156	1155.46924	-65.71429	883.69141	1180.95703	48.34184	951.54456	873.69977	236.15062	457.60074	1084.23022	-34.97654	509.86288	1272.11047	229.83109	128.30156	936.00665	14.66348	179.68658	1343.19116	
340	3.390	18.70046	1401.38550	1312.59888	44.79057	1544.82007	1045.47107	145.08159	1482.46692	1165.94702	-77.04004	1439.02222	1202.93848	271.89081	1288.77283	1085.27759	-152.66637	1269.65967	1091.39404	66.11553	1206.50513	1203.59241	56.20013	1339.15173	978.61707	384.29257	1016.60046	1058.94373	-221.74922	1024.95227	1016.43121	443.69879	831.67529	1214.82605	-303.01935	775.76733	1067.51367	213.34192	906.08563	1163.19092	-65.24658	882.06085	1190.55017	49.66240	950.80750	883.63165	236.49657	455.20627	1089.83154	-34.16220	504.94006	1277.93433	229.46211	127.69765	937.04279	15.14636	185.64153	1366.24219	
341	3.400	17.51786	1399.96033	1322.41272	46.36263	1543.06543	1054.79163	145.95015	1481.28027	1176.22339	-77.06818	1436.88330	1210.98962	272.91769	1287.58032	1095.90088	-151.30341	1267.98669	1099.85815	67.44247	1204.61206	1213.03174	57.28821	1338.04175	988.46082	386.05252	1015.27325	1072.52551	-219.56175	1023.26135	1023.14587	444.08899	830.36102	1227.53638	-301.83865	774.20062	1071.41211	214.47800	904.42334	1172.95581	-63.86310	879.74170	1200.09888	50.07787	949.70508	893.18628	236.88861	452.88489	1094.83875	-32.42609	500.44434	1284.01685	229.38512	127.66682	937.71967	14.69955	190.85420	1385.88342	
342	3.410	16.41687	1398.13843	1331.57556	47.16984	1541.71729	1064.23010	145.74220	1480.00403	1186.62952	-77.29788	1435.32983	1219.67664	273.67877	1286.44373	1106.68311	-150.65056	1266.26758	1108.70264	67.94540	1203.14294	1222.71741	58.44402	1335.82288	997.47400	387.08167	1014.49536	1084.76050	-218.05469	1021.44958	1030.58105	443.45551	829.02161	1240.71021	-300.95618	772.96057	1075.62402	215.24435	902.64966	1181.80652	-63.27189	878.06757	1209.79883	51.27238	947.98663	903.42786	237.57722	450.55307	1100.87036	-32.01542	495.96545	1290.80444	229.24304	127.69427	938.08978	14.19879	195.79184	1403.91248	
343	3.420	15.24141	1396.41479	1340.44702	47.27784	1539.87170	1073.79529	145.69637	1478.01489	1196.96887	-78.23433	1433.78943	1226.31384	274.26843	1285.38281	1116.68420	-150.17456	1264.20129	1117.42749	68.59375	1201.25195	1232.85632	59.05177	1334.18799	1007.47327	388.05457	1013.25726	1098.17188	-216.14389	1020.07361	1037.99707	443.28217	828.64514	1253.62097	-301.08725	772.51422	1080.04980	215.38945	901.01459	1190.91907	-62.23079	876.27197	1219.47729	51.66949	945.97253	913.83337	238.73561	448.61157	1106.78625	-30.72750	491.89252	1298.52893	229.08647	128.00116	938.83002	13.69285	200.63162	1419.85474	
344	3.430	14.13731	1394.72119	1350.07275	47.95193	1538.44604	1083.20911	145.27644	1475.97656	1207.39624	-78.76401	1432.16162	1237.44568	274.61426	1283.94971	1127.47290	-149.28835	1262.08997	1126.63538	69.14136	1200.11499	1242.75427	59.90747	1331.79053	1017.35760	388.17358	1012.25940	1109.98254	-214.53770	1018.11401	1045.91809	442.35220	827.11340	1266.36755	-299.85806	770.89746	1084.69983	215.60965	899.56995	1201.06616	-61.40894	874.41882	1229.29248	51.30497	944.55273	924.04871	239.72128	446.89188	1113.14343	-29.26066	488.22940	1305.94226	229.35155	127.93912	940.11761	14.20289	204.16487	1434.67542	
345	3.440	12.73456	1393.25781	1359.45374	49.12077	1535.52515	1092.51721	144.72546	1474.38367	1217.15137	-79.15938	1430.47717	1246.07324	274.52670	1282.41479	1137.83704	-149.27118	1260.51855	1135.97278	69.45526	1198.80127	1252.61487	60.33624	1329.94275	1026.88440	387.83432	1010.31720	1122.36572	-213.20670	1016.39874	1054.20007	441.80505	826.36761	1278.55273	-297.71674	768.55365	1090.02698	215.67352	898.02203	1210.88098	-61.03135	873.01831	1239.18457	52.51237	942.05884	934.97327	241.18794	445.50659	1119.45044	-28.53885	486.49158	1314.61340	229.34285	128.26306	942.27698	12.32595	205.35231	1447.37988	
346	3.450	11.00539	1391.62463	1369.00793	49.57868	1533.60144	1101.84631	144.50333	1472.82239	1227.86548	-80.09389	1428.70422	1254.82788	274.47864	1280.94312	1148.13159	-149.83618	1258.70093	1145.35693	69.27774	1197.49207	1262.83203	60.67273	1327.75830	1036.79419	387.20129	1009.00189	1134.42798	-212.08191	1014.59973	1062.24878	440.58560	824.83923	1290.46362	-296.31494	766.57379	1095.00488	215.54102	896.98889	1221.47253	-60.96332	871.46973	1249.34094	53.34430	939.58264	946.01459	241.41779	444.74350	1127.68799	-27.35613	484.73712	1322.52051	229.52278	129.12854	943.04877	12.21238	206.11684	1459.85901	
347	3.460	9.72242	1390.02185	1378.21252	49.39463	1531.82898	1111.29016	143.25787	1470.58972	1236.99719	-81.02813	1426.88757	1263.61768	274.37466	1279.66040	1158.08728	-149.75572	1256.32104	1154.89014	69.06530	1196.33032	1272.82397	60.00629	1325.56372	1046.54688	386.30655	1006.84180	1145.68884	-211.26367	1012.64496	1071.12793	439.58163	823.16022	1301.84460	-295.13538	764.86627	1100.71375	215.02156	895.96338	1232.16003	-60.54970	869.74591	1259.78662	54.30264	937.01489	957.80237	242.45425	443.21893	1135.45593	-26.75446	483.27722	1332.01953	229.07851	129.28174	945.32690	11.32147	205.68451	1469.62231	
